<?xml version="1.0" encoding="utf-8"?>
<!-- Generator: Adobe Illustrator 16.0.0, SVG Export Plug-In . SVG Version: 6.00 Build 0)  -->
<!DOCTYPE svg PUBLIC "-//W3C//DTD SVG 1.1//EN" "http://www.w3.org/Graphics/SVG/1.1/DTD/svg11.dtd">
<svg version="1.1" id="Layer_1" xmlns="http://www.w3.org/2000/svg" xmlns:xlink="http://www.w3.org/1999/xlink" x="0px" y="0px"
	 width="1280px" height="333px" viewBox="0 0 1280 333" enable-background="new 0 0 1280 333" xml:space="preserve">
<g>
	<path fill="#231F20" d="M371.669,113.139l14.126,72.552c3.622,18.397,7.246,38.021,10.149,58.261h0.735
		c3.642-20.239,8.703-40.555,13.044-57.918l18.841-72.895h43.464l17.767,70.631c4.723,19.971,9.439,39.942,13.061,60.182h0.721
		c2.529-20.239,6.159-40.211,10.155-60.521l15.186-70.292h54.011l-54.358,177.171h-51.798l-16.683-62.285
		c-4.351-17.442-7.628-33.312-11.25-55.12h-0.718c-3.249,22.156-6.873,38.427-11.56,55.12l-17.773,62.285h-51.832L315.5,113.139
		H371.669z"/>
	<path fill="#231F20" d="M665.584,63.874c0,15.18-11.572,27.522-29.743,27.522c-17.372,0-28.967-12.343-28.584-27.522
		c-0.383-15.934,11.212-27.906,28.959-27.906C654.012,35.968,665.24,47.94,665.584,63.874z M608.693,290.311V113.139h55.112v177.171
		H608.693z"/>
	<path fill="#231F20" d="M707.638,242.173c10.124,6.15,31.184,13.336,47.454,13.336c16.688,0,23.53-5.749,23.53-14.772
		c0-9.094-5.405-13.402-26.06-20.377c-36.646-12.305-50.732-32.136-50.389-53.234c0-32.959,28.307-57.953,72.14-57.953
		c20.642,0,39.114,4.688,49.979,10.157l-9.772,38.055c-7.935-4.381-23.187-10.161-38.431-10.161
		c-13.407,0-20.998,5.407-20.998,14.501c0,8.31,6.842,12.618,28.65,20.271c33.713,11.631,47.799,28.588,48.142,54.71
		c0,33.021-26.043,57.23-76.792,57.23c-23.175,0-43.833-5.062-57.23-12.305L707.638,242.173z"/>
	<path fill="#231F20" d="M864.905,242.173c10.129,6.15,31.134,13.336,47.409,13.336c16.747,0,23.589-5.749,23.589-14.772
		c0-9.094-5.406-13.402-26.122-20.377c-36.585-12.305-50.675-32.136-50.331-53.234c0-32.959,28.312-57.953,72.14-57.953
		c20.584,0,39.114,4.688,49.983,10.157l-9.772,38.055c-7.934-4.381-23.244-10.161-38.427-10.161c-13.336,0-21.06,5.407-21.06,14.501
		c0,8.31,6.966,12.618,28.646,20.271c33.709,11.631,47.86,28.588,48.203,54.71c0,33.021-26.051,57.23-76.85,57.23
		c-23.117,0-43.833-5.062-57.173-12.305L864.905,242.173z"/>
	<path fill="#231F20" d="M1022.538,33.069h55.116v257.242h-55.116V33.069z"/>
	<path fill="#231F20" d="M1164.574,219.263c1.846,22.91,24.342,33.717,49.983,33.717c18.883,0,34.064-2.533,48.97-7.189
		l7.243,37.276c-18.134,7.244-40.207,10.869-64.144,10.869c-60.104,0-94.564-34.805-94.564-90.194
		c0-44.923,27.885-94.569,89.503-94.569c57.302,0,78.978,44.551,78.978,88.419c0,9.429-1.093,17.707-1.784,21.672H1164.574z
		 M1229.467,181.589c0-13.369-5.762-35.83-31.18-35.83c-23.188,0-32.616,21.022-34.057,35.83H1229.467z"/>
</g>
<path fill="#EA2229" d="M168.051,77.531c10.809-6.165,34.487-19.141,46.991-17.908c13.591,1.37,36.83,15.008,47.045,24.096
	c7.458,6.54,23.5,25.759,22.186,34.042c-1.499,9.238-19.257,20.987-26.445,26.891c-7.328,6.027-23.69,17.722-27.86,25.352
	c-4.495,8.212-4.613,20.087-4.499,23.883c0.738,23.808,5.997,58.675-20.22,87.694c-29.338,32.524-49.489,32.26-72.393,30.017
	c-30.956-2.984-83.75-28.676-93.048-80.418c-7.984-44.45,51.44-97.703,51.44-97.703s30.13,19.656,41.032,24.625
	c4.948,2.216,15.732,8.185,22.093,1.302c7.235-7.914,2.537-14.88-5.71-21.43c-8.835-7.124-32.773-21.664-32.773-21.664
	S154.097,85.554,168.051,77.531z M155.404,197.607c-26.376,0-47.761,21.316-47.761,47.69s21.385,47.694,47.761,47.694
	c26.339,0,47.694-21.32,47.694-47.694S181.743,197.607,155.404,197.607z"/>
<path fill="#EA2229" d="M75.201,128.553c-0.004,3.845-3.147,6.962-6.999,6.949L7.538,135.35c-3.845-0.031-7.008-3.152-6.995-7.014
	l0,0c0.008-3.845,3.179-6.962,7.028-6.952l60.67,0.147C72.083,121.542,75.218,124.673,75.201,128.553L75.201,128.553z"/>
<path fill="#EA2229" d="M90.584,110.368c-2.684,2.742-7.099,2.794-9.872,0.105L37.304,68.067c-2.769-2.684-2.819-7.169-0.105-9.913
	l0,0c2.711-2.74,7.133-2.79,9.884-0.102L90.477,100.5C93.217,103.181,93.269,107.595,90.584,110.368L90.584,110.368z"/>
<path fill="#EA2229" d="M108.157,94.755c-3.845,0.004-6.98-3.108-6.985-6.993l-0.136-60.667c-0.004-3.878,3.113-7.016,6.958-7.024
	l0,0c3.848-0.01,6.991,3.108,6.999,6.995l0.137,60.672C115.138,91.61,112.004,94.743,108.157,94.755L108.157,94.755z"/>
</svg>
